<?xml version="1.0" encoding="UTF-8" standalone="no"?>
<!-- Created with Inkscape (http://www.inkscape.org/) -->

<svg
   xmlns:dc="http://purl.org/dc/elements/1.1/"
   xmlns:cc="http://creativecommons.org/ns#"
   xmlns:rdf="http://www.w3.org/1999/02/22-rdf-syntax-ns#"
   xmlns:svg="http://www.w3.org/2000/svg"
   xmlns="http://www.w3.org/2000/svg"
   xmlns:sodipodi="http://sodipodi.sourceforge.net/DTD/sodipodi-0.dtd"
   xmlns:inkscape="http://www.inkscape.org/namespaces/inkscape"
   width="792.45056"
   height="129.20108"
   id="svg4938"
   version="1.1"
   inkscape:version="0.91pre2 r"
   viewBox="0 0 792.45056 129.20108"
   sodipodi:docname="big_logo_and_glow.svg"
   inkscape:export-filename="/home/mray/Projects/TOL/terminal-overload/My Projects/main/game/notc/client/shell/images/big_logo_and_glow.png"
   inkscape:export-xdpi="90"
   inkscape:export-ydpi="90">
  <defs
     id="defs4940">
    <filter
       inkscape:collect="always"
       style="color-interpolation-filters:sRGB"
       id="filter5112-1"
       x="-0.24171031"
       width="1.4834206"
       y="-0.24171031"
       height="1.4834206">
      <feGaussianBlur
         inkscape:collect="always"
         stdDeviation="17.26802"
         id="feGaussianBlur5114-9" />
    </filter>
  </defs>
  <sodipodi:namedview
     id="base"
     pagecolor="#ffffff"
     bordercolor="#666666"
     borderopacity="1.0"
     inkscape:pageopacity="0.0"
     inkscape:pageshadow="2"
     inkscape:zoom="5.9700051"
     inkscape:cx="308.59494"
     inkscape:cy="-10.676723"
     inkscape:document-units="px"
     inkscape:current-layer="layer1"
     showgrid="false"
     fit-margin-top="0"
     fit-margin-left="0"
     fit-margin-right="0"
     fit-margin-bottom="0"
     inkscape:window-width="2494"
     inkscape:window-height="1378"
     inkscape:window-x="66"
     inkscape:window-y="27"
     inkscape:window-maximized="1" />
  <metadata
     id="metadata4943">
    <rdf:RDF>
      <cc:Work
         rdf:about="">
        <dc:format>image/svg+xml</dc:format>
        <dc:type
           rdf:resource="http://purl.org/dc/dcmitype/StillImage" />
        <dc:title />
      </cc:Work>
    </rdf:RDF>
  </metadata>
  <g
     inkscape:label="Layer 1"
     inkscape:groupmode="layer"
     id="layer1"
     transform="translate(148.32303,-359.2359)">
    <g
       transform="matrix(0.55400364,0,0,0.55400364,-6.569129,175.46617)"
       id="g5184"
       style="display:inline;opacity:1">
      <path
         style="color:#000000;display:inline;overflow:visible;visibility:visible;fill:#ffffff;fill-opacity:1;fill-rule:evenodd;stroke:#ffffff;stroke-width:20;stroke-miterlimit:4;stroke-dasharray:none;marker:none;enable-background:accumulate"
         d="m 351.59375,396.03125 -2.25,31.25 29.96875,3.6875 -14.71875,1 -4.9375,68.125 183.03125,0 2.25,-31.1875 -32.3125,-4.53125 17.0625,-0.15625 4.9375,-68.1875 z"
         id="path5186"
         inkscape:connector-curvature="0"
         sodipodi:nodetypes="ccccccccccc" />
      <path
         inkscape:connector-curvature="0"
         style="color:#000000;display:inline;overflow:visible;visibility:visible;fill:#43877c;fill-opacity:1;fill-rule:evenodd;stroke:none;stroke-width:1px;marker:none;enable-background:accumulate"
         d="m 446.03125,392.4375 c -30.8265,0 -55.65625,24.7985 -55.65625,55.625 0,30.8265 24.82975,55.65625 55.65625,55.65625 30.8265,0 55.625,-24.82975 55.625,-55.65625 0,-30.8265 -24.7985,-55.625 -55.625,-55.625 z m -94.4375,3.59375 -2.25,31.25 29.96875,3.6875 -14.71875,1 -4.9375,68.125 44.125,0 c -15.10067,-12.2598 -24.75,-30.97664 -24.75,-52.03125 0,-21.07038 9.66104,-39.77197 24.78125,-52.03125 l -52.21875,0 z m 136.625,0 C 503.33896,408.29053 513,426.99212 513,448.0625 c 0,21.05461 -9.64933,39.77145 -24.75,52.03125 l 54.4375,0 2.25,-31.1875 -32.3125,-4.53125 17.0625,-0.15625 4.9375,-68.1875 -46.40625,0 z m -42.1875,26.25 c 14.29511,0 25.78125,11.48614 25.78125,25.78125 0,14.29511 -11.48614,25.8125 -25.78125,25.8125 -14.29511,0 -25.8125,-11.51739 -25.8125,-25.8125 0,-14.29511 11.51739,-25.78125 25.8125,-25.78125 z"
         id="path5188" />
    </g>
    <circle
       style="color:#000000;display:inline;overflow:visible;visibility:visible;opacity:0.33000004;fill:#ffffff;fill-opacity:1;fill-rule:nonzero;stroke:none;stroke-width:40;stroke-miterlimit:4;stroke-dasharray:none;stroke-opacity:1;marker:none;filter:url(#filter5112-1);enable-background:accumulate"
       id="path5644-2"
       cx="325.79968"
       cy="387.52002"
       transform="matrix(-0.64289879,0,0,0.50641738,452.29279,227.58957)"
       r="85.993027"
       d="m 411.79271,387.52002 a 85.993027,85.993027 0 0 1 -85.99303,85.99303 85.993027,85.993027 0 0 1 -85.99302,-85.99303 85.993027,85.993027 0 0 1 85.99302,-85.99303 85.993027,85.993027 0 0 1 85.99303,85.99303 z" />
    <text
       xml:space="preserve"
       style="color:#000000;font-style:italic;font-variant:normal;font-weight:normal;font-stretch:normal;font-size:25.03086853px;line-height:86.00000143%;font-family:Quantico;-inkscape-font-specification:'Quantico Italic';text-align:center;letter-spacing:18.75490379px;word-spacing:0px;writing-mode:lr-tb;text-anchor:middle;display:inline;overflow:visible;visibility:visible;opacity:1;fill:#ffffff;fill-opacity:0.47058824;fill-rule:nonzero;stroke:none;stroke-width:5;marker:none;enable-background:accumulate;"
       x="242.87198"
       y="434.49924"
       id="text5190-1"
       sodipodi:linespacing="86.000001%"><tspan
         id="tspan5192-6"
         sodipodi:role="line"
         x="252.24942"
         y="434.49924"
         style="font-style:normal;font-variant:normal;font-weight:bold;font-stretch:normal;font-size:25.03086853px;line-height:86.00000143%;font-family:Quantico;-inkscape-font-specification:'Quantico Bold';text-align:center;letter-spacing:18.75490379px;writing-mode:lr-tb;text-anchor:middle;fill:#ffffff;fill-opacity:0.47058824;stroke:none;">TERMINAL       OVERLOAD</tspan></text>
  </g>
</svg>
